#define antenna_width  10
#define antenna_height 8
static const unsigned char antenna_bits[] PROGMEM = {
 0x31,0xfe,0xb5,0xfe,0xb5,0xfe,0x31,0xfe,0x30,0xfc,0x30,0xfc,
 0x30,0xfc,0x78,0xfc};
