#define arrow_outline_right_width 16
#define arrow_outline_right_height 16
static const unsigned char arrow_outline_right_bits[] PROGMEM = {
   0x80, 0x01, 0x80, 0x03, 0x80, 0x07, 0x80, 0x0f, 0xff, 0x1d, 0xff, 0x39,
   0x03, 0x70, 0x03, 0xe0, 0x03, 0x70, 0xff, 0x39, 0xff, 0x1d, 0x80, 0x0f,
   0x80, 0x07, 0x80, 0x03, 0x80, 0x01, 0x00, 0x00 };
