#define arrow_outline_down_width 16
#define arrow_outline_down_height 16
static const unsigned char arrow_outline_down_bits[] PROGMEM = {
   0xf0, 0x07, 0xf0, 0x07, 0x30, 0x06, 0x30, 0x06, 0x30, 0x06, 0x30, 0x06,
   0x30, 0x06, 0x3f, 0x7e, 0x3f, 0x7e, 0x0e, 0x38, 0x1c, 0x1c, 0x38, 0x0e,
   0x70, 0x07, 0xe0, 0x03, 0xc0, 0x01, 0x80, 0x00 };
