#define arrow_outline_left_width 16
#define arrow_outline_left_height 16
static const unsigned char arrow_outline_left_bits[] PROGMEM = {
   0x80, 0x01, 0xc0, 0x01, 0xe0, 0x01, 0xf0, 0x01, 0xb8, 0xff, 0x9c, 0xff,
   0x0e, 0xc0, 0x07, 0xc0, 0x0e, 0xc0, 0x9c, 0xff, 0xb8, 0xff, 0xf0, 0x01,
   0xe0, 0x01, 0xc0, 0x01, 0x80, 0x01, 0x00, 0x00 };
