#define arrow_solid_right_width 16
#define arrow_solid_right_height 16
static const unsigned char arrow_solid_right_bits[] PROGMEM = {
   0x80, 0x01, 0x80, 0x03, 0x80, 0x07, 0x80, 0x0f, 0xff, 0x1f, 0xff, 0x3f,
   0xff, 0x7f, 0xff, 0xff, 0xff, 0x7f, 0xff, 0x3f, 0xff, 0x1f, 0x80, 0x0f,
   0x80, 0x07, 0x80, 0x03, 0x80, 0x01, 0x00, 0x00 };
