#define arrow_solid_left_width 16
#define arrow_solid_left_height 16
static const unsigned char arrow_solid_left_bits[] PROGMEM = {
   0x80, 0x01, 0xc0, 0x01, 0xe0, 0x01, 0xf0, 0x01, 0xf8, 0xff, 0xfc, 0xff,
   0xfe, 0xff, 0xff, 0xff, 0xfe, 0xff, 0xfc, 0xff, 0xf8, 0xff, 0xf0, 0x01,
   0xe0, 0x01, 0xc0, 0x01, 0x80, 0x01, 0x00, 0x00 };
