#define denied_width 16
#define denied_height 16
static const unsigned char denied_bits[] PROGMEM = {
   0xe0, 0x03, 0xf8, 0x0f, 0x3c, 0x1e, 0x1e, 0x38, 0x3e, 0x30, 0x77, 0x70,
   0xe3, 0x60, 0xc3, 0x61, 0x83, 0x63, 0x07, 0x77, 0x06, 0x3e, 0x0e, 0x3c,
   0x3c, 0x1e, 0xf8, 0x0f, 0xe0, 0x03, 0x00, 0x00 };